<svg width="7" height="13" viewBox="0 0 7 13" fill="none" xmlns="http://www.w3.org/2000/svg">
<path fill-rule="evenodd" clip-rule="evenodd" d="M0.348974 12.5541C0.134676 12.3118 0.0142907 11.9834 0.0142907 11.6409C0.0142907 11.2984 0.134676 10.9699 0.348974 10.7277L4.11319 6.47419L0.348973 2.22073C0.239796 2.10158 0.152712 1.95905 0.0928039 1.80146C0.0328954 1.64388 0.00136164 1.47438 4.271e-05 1.30288C-0.00127622 1.13137 0.0276458 0.961284 0.0851216 0.802543C0.142597 0.643802 0.227476 0.499585 0.334804 0.378306C0.442132 0.257029 0.569761 0.161118 0.710243 0.0961723C0.850726 0.0312261 1.00125 -0.00145631 1.15303 3.42753e-05C1.30481 0.00152486 1.4548 0.037157 1.59427 0.104852C1.73373 0.172546 1.85986 0.270949 1.96531 0.394317L6.53769 5.56098C6.75199 5.80321 6.87237 6.13169 6.87237 6.47419C6.87237 6.8167 6.75199 7.14518 6.53769 7.3874L1.96531 12.5541C1.75095 12.7962 1.46025 12.9323 1.15714 12.9323C0.854034 12.9323 0.563336 12.7962 0.348974 12.5541Z" fill="white"/>
</svg>
